<mxfile host="app.diagrams.net" modified="2023-10-04T19:00:27.645Z" agent="Mozilla/5.0 (Macintosh; Intel Mac OS X 10_15_7) AppleWebKit/605.1.15 (KHTML, like Gecko) Version/17.0 Safari/605.1.15" version="22.0.2" etag="NbYEuWvfCHaLLzKexziJ" type="github">
  <diagram name="Сторінка-1" id="cvGikzkoZ4TRf7PWXV6u">
    <mxGraphModel>
      <root>
        <mxCell id="0" />
        <mxCell id="1" parent="0" />
      </root>
    </mxGraphModel>
  </diagram>
</mxfile>
